<svg width="500" height="500" viewBox="0 0 500 500" fill="none" xmlns="http://www.w3.org/2000/svg">
<rect width="500" height="500" fill="#131313"/>
<path d="M184.844 230.008C191.615 230.008 198.255 230.789 204.766 232.352C211.406 233.914 217.721 236.258 223.711 239.383C229.701 242.378 234.974 246.414 239.531 251.492C244.219 256.57 246.758 262.625 247.148 269.656V277.859V311.258C246.367 319.07 242.07 323.302 234.258 323.953C230.612 323.953 227.422 322.781 224.688 320.438C222.083 317.964 220.781 314.904 220.781 311.258V302.664V275.711C220.521 271.674 218.958 268.354 216.094 265.75C213.359 263.016 210.234 260.867 206.719 259.305C203.333 257.742 199.753 256.57 195.977 255.789C192.331 255.008 188.62 254.617 184.844 254.617C181.068 254.617 177.292 255.008 173.516 255.789C169.87 256.57 166.289 257.742 162.773 259.305C159.388 260.867 156.263 263.016 153.398 265.75C150.664 268.354 149.167 271.674 148.906 275.711V302.664V311.258C148.255 319.07 144.023 323.302 136.211 323.953C132.565 323.953 129.375 322.781 126.641 320.438C124.036 317.964 122.734 314.904 122.734 311.258V277.859V269.656C123.125 262.625 125.599 256.57 130.156 251.492C134.714 246.414 139.987 242.378 145.977 239.383C151.966 236.258 158.216 233.914 164.727 232.352C171.367 230.789 178.073 230.008 184.844 230.008ZM260.055 257.547C262.529 251.297 266.695 245.698 272.555 240.75C278.544 235.672 286.096 233.068 295.211 232.938H368.648C372.294 232.938 375.354 234.24 377.828 236.844C380.432 239.318 381.734 242.378 381.734 246.023C381.734 249.669 380.432 252.794 377.828 255.398C375.354 257.872 372.294 259.109 368.648 259.109H294.43C291.956 259.109 289.807 260.151 287.984 262.234C286.161 264.188 284.729 266.531 283.688 269.266C282.776 272 282.32 274.604 282.32 277.078V311.258C281.539 319.07 277.242 323.302 269.43 323.953C265.784 323.953 262.594 322.781 259.859 320.438C257.255 317.964 255.953 314.904 255.953 311.258V277.273H256.148C256.148 270.503 257.451 263.927 260.055 257.547Z" fill="white"/>
</svg>
